# xmcd CD database file
#
# Track frame offsets:
#	150
#	23909
#	48205
#	64612
#	80893
#	97963
#	124446
#	141101
#	166514
#	184141
#	213422
#	241943
#	254822
#	270259
#
# Disc length: 3921 seconds
#
# Revision: 0
# Processed by: cddbd v1.5.2PL0 Copyright (c) Steve Scherf et al.
# Submitted via: CDex 1.70beta2
#
DISCID=c10f4f0e
DTITLE=Yoko Sikes - You don't know me
DYEAR=2006
DGENRE=Jazz
TTITLE0=Kansas City
TTITLE1=You don't Know Me
TTITLE2=Sometimes I'm Happy
TTITLE3=My One and Only Love
TTITLE4=It's All Right With Me
TTITLE5=You go to my Head
TTITLE6=Orange Colored Sky
TTITLE7=Bewitched
TTITLE8=So Nice
TTITLE9=Autumn in New York
TTITLE10=On the Street Where You Live
TTITLE11=Green
TTITLE12=Straighten Up and Fly Right
TTITLE13=All The Way
EXTD=YEAR: 2006
EXTT0=
EXTT1=
EXTT2=
EXTT3=
EXTT4=
EXTT5=
EXTT6=
EXTT7=
EXTT8=
EXTT9=
EXTT10=
EXTT11=
EXTT12=
EXTT13=
PLAYORDER=
